<?xml version="1.0" encoding="UTF-8" standalone="no"?>
<!DOCTYPE svg PUBLIC "-//W3C//DTD SVG 1.1//EN"
 "http://www.w3.org/Graphics/SVG/1.1/DTD/svg11.dtd">
<!-- Generated by graphviz version 2.47.0 (20210316.0004)
 -->
<!-- Title: dependencies Pages: 1 -->
<svg width="504pt" height="287pt"
 viewBox="0.00 0.00 504.00 287.00" xmlns="http://www.w3.org/2000/svg" xmlns:xlink="http://www.w3.org/1999/xlink">
<g id="graph0" class="graph" transform="scale(1 1) rotate(0) translate(4 283)">
<title>dependencies</title>
<polygon fill="white" stroke="transparent" points="-4,4 -4,-283 500,-283 500,4 -4,4"/>
<text text-anchor="start" x="227.01" y="-42.4" font-family="sans-serif" font-weight="bold" font-size="14.00">Legend</text>
<polygon fill="#ffffb3" stroke="transparent" points="14,-10 14,-30 34,-30 34,-10 14,-10"/>
<text text-anchor="start" x="37.63" y="-15.4" font-family="sans-serif" font-size="14.00"> &#160;Declarations</text>
<polygon fill="#8dd3c7" stroke="transparent" points="127,-10 127,-30 147,-30 147,-10 127,-10"/>
<text text-anchor="start" x="150.73" y="-15.4" font-family="sans-serif" font-size="14.00"> &#160;Module</text>
<polygon fill="#80b1d3" stroke="transparent" points="213,-10 213,-30 233,-30 233,-10 213,-10"/>
<text text-anchor="start" x="236.78" y="-15.4" font-family="sans-serif" font-size="14.00"> &#160;Bootstrap</text>
<polygon fill="#fdb462" stroke="transparent" points="310,-10 310,-30 330,-30 330,-10 310,-10"/>
<text text-anchor="start" x="333.67" y="-15.4" font-family="sans-serif" font-size="14.00"> &#160;Providers</text>
<polygon fill="#fb8072" stroke="transparent" points="406,-10 406,-30 426,-30 426,-10 406,-10"/>
<text text-anchor="start" x="429.73" y="-15.4" font-family="sans-serif" font-size="14.00"> &#160;Exports</text>
<g id="clust1" class="cluster">
<title>cluster_AppModule</title>
<polygon fill="none" stroke="black" stroke-dasharray="1,5" points="110.5,-146 110.5,-271 370.5,-271 370.5,-146 110.5,-146"/>
</g>
<g id="clust3" class="cluster">
<title>cluster_AppModule_imports</title>
<polygon fill="none" stroke="black" points="256.5,-154 256.5,-206 362.5,-206 362.5,-154 256.5,-154"/>
</g>
<g id="clust6" class="cluster">
<title>cluster_AppModule_providers</title>
<polygon fill="none" stroke="black" points="118.5,-154 118.5,-206 248.5,-206 248.5,-154 118.5,-154"/>
</g>
<g id="clust7" class="cluster">
<title>cluster_TodoModule</title>
<polygon fill="none" stroke="black" stroke-dasharray="1,5" points="233.5,-70 233.5,-138 385.5,-138 385.5,-70 233.5,-70"/>
</g>
<g id="clust12" class="cluster">
<title>cluster_TodoModule_providers</title>
<polygon fill="none" stroke="black" points="241.5,-78 241.5,-130 377.5,-130 377.5,-78 241.5,-78"/>
</g>
<!-- TodoModule -->
<g id="node1" class="node">
<title>TodoModule</title>
<polygon fill="#8dd3c7" stroke="black" points="354.1,-198 351.1,-202 330.1,-202 327.1,-198 264.9,-198 264.9,-162 354.1,-162 354.1,-198"/>
<text text-anchor="middle" x="309.5" y="-175.8" font-family="Times,serif" font-size="14.00">TodoModule</text>
</g>
<!-- AppModule -->
<g id="node2" class="node">
<title>AppModule</title>
<polygon fill="#8dd3c7" stroke="black" points="288.16,-263 285.16,-267 264.16,-267 261.16,-263 204.84,-263 204.84,-227 288.16,-227 288.16,-263"/>
<text text-anchor="middle" x="246.5" y="-240.8" font-family="Times,serif" font-size="14.00">AppModule</text>
</g>
<!-- TodoModule&#45;&gt;AppModule -->
<g id="edge1" class="edge">
<title>TodoModule&#45;&gt;AppModule</title>
<path fill="none" stroke="black" d="M276.64,-198.11C276.64,-198.11 276.64,-216.99 276.64,-216.99"/>
<polygon fill="black" stroke="black" points="273.14,-216.99 276.64,-226.99 280.14,-216.99 273.14,-216.99"/>
</g>
<!-- AppService -->
<g id="node3" class="node">
<title>AppService</title>
<ellipse fill="#fdb462" stroke="black" cx="183.5" cy="-180" rx="56.74" ry="18"/>
<text text-anchor="middle" x="183.5" y="-175.8" font-family="Times,serif" font-size="14.00">AppService</text>
</g>
<!-- AppService&#45;&gt;AppModule -->
<g id="edge2" class="edge">
<title>AppService&#45;&gt;AppModule</title>
<path fill="none" stroke="black" d="M222.4,-193.15C222.4,-193.15 222.4,-216.69 222.4,-216.69"/>
<polygon fill="black" stroke="black" points="218.9,-216.69 222.4,-226.69 225.9,-216.69 218.9,-216.69"/>
</g>
<!-- TodoService -->
<g id="node4" class="node">
<title>TodoService</title>
<ellipse fill="#fdb462" stroke="black" cx="309.5" cy="-104" rx="60.25" ry="18"/>
<text text-anchor="middle" x="309.5" y="-99.8" font-family="Times,serif" font-size="14.00">TodoService</text>
</g>
<!-- TodoService&#45;&gt;TodoModule -->
<g id="edge3" class="edge">
<title>TodoService&#45;&gt;TodoModule</title>
<path fill="none" stroke="black" d="M309.5,-122.01C309.5,-122.01 309.5,-151.85 309.5,-151.85"/>
<polygon fill="black" stroke="black" points="306,-151.85 309.5,-161.85 313,-151.85 306,-151.85"/>
</g>
</g>
</svg>
